# xmcd CD database file
#
# Track frame offsets:
#	150
#	3154
#	33669
#	40433
#	75438
#	80891
#	114172
#	161154
#	189898
#	227113
#
# Disc length: 3403 seconds
#
# Revision: 0
# Processed by: cddbd v1.5.1PL2 Copyright (c) Steve Scherf et al.
# Submitted via: CDex 1.51
#
DISCID=700d490a
DTITLE=Mind's Eye - Children of the Glacier
DYEAR=1900
DGENRE=Jazz
TTITLE0=Algonquin (introduction)
TTITLE1=Ontario
TTITLE2=Erie
TTITLE3=Superior
TTITLE4=Huron (interlude)
TTITLE5=Huron
TTITLE6=Michigan
TTITLE7=Sleepy Joe
TTITLE8=Malcom's Mode
TTITLE9=Rhythm Method
EXTD=
EXTT0=
EXTT1=
EXTT2=
EXTT3=
EXTT4=
EXTT5=
EXTT6=
EXTT7=
EXTT8=
EXTT9=
PLAYORDER=
